<svg width="22" height="16" viewBox="0 0 22 16" fill="none" xmlns="http://www.w3.org/2000/svg">
<path d="M11 2.44116C14.79 2.44116 18.17 4.57116 19.82 7.94116C18.17 11.3112 14.8 13.4412 11 13.4412C7.2 13.4412 3.83 11.3112 2.18 7.94116C3.83 4.57116 7.21 2.44116 11 2.44116ZM11 0.441162C6 0.441162 1.73 3.55116 0 7.94116C1.73 12.3312 6 15.4412 11 15.4412C16 15.4412 20.27 12.3312 22 7.94116C20.27 3.55116 16 0.441162 11 0.441162ZM11 5.44116C12.38 5.44116 13.5 6.56116 13.5 7.94116C13.5 9.32116 12.38 10.4412 11 10.4412C9.62 10.4412 8.5 9.32116 8.5 7.94116C8.5 6.56116 9.62 5.44116 11 5.44116ZM11 3.44116C8.52 3.44116 6.5 5.46116 6.5 7.94116C6.5 10.4212 8.52 12.4412 11 12.4412C13.48 12.4412 15.5 10.4212 15.5 7.94116C15.5 5.46116 13.48 3.44116 11 3.44116Z" fill="#323232"/>
</svg>
