<svg width="18" height="19" viewBox="0 0 18 19" fill="none" xmlns="http://www.w3.org/2000/svg">
<path d="M6.50001 0.970581C7.74357 0.970554 8.96103 1.32725 10.008 1.99835C11.0549 2.66944 11.8873 3.62678 12.4065 4.75676C12.9257 5.88674 13.1099 7.14194 12.9371 8.37344C12.7644 9.60493 12.242 10.761 11.432 11.7046L17.076 17.3486L16.369 18.0556L10.724 12.4106C9.92789 13.0914 8.97901 13.5697 7.95819 13.8048C6.93737 14.0399 5.87486 14.0248 4.86114 13.7607C3.84743 13.4967 2.91255 12.9915 2.13612 12.2883C1.3597 11.5851 0.764725 10.7047 0.401886 9.72201C0.0390466 8.73932 -0.0809124 7.6835 0.0522255 6.64445C0.185363 5.60541 0.567654 4.61394 1.16654 3.75448C1.76542 2.89503 2.56315 2.19304 3.4918 1.70832C4.42044 1.2236 5.45248 0.970501 6.50001 0.970581V0.970581ZM6.50001 1.97058C5.04132 1.97058 3.64238 2.55004 2.61093 3.58149C1.57948 4.61294 1.00001 6.01189 1.00001 7.47058C1.00001 8.92927 1.57948 10.3282 2.61093 11.3597C3.64238 12.3911 5.04132 12.9706 6.50001 12.9706C7.9587 12.9706 9.35765 12.3911 10.3891 11.3597C11.4206 10.3282 12 8.92927 12 7.47058C12 6.01189 11.4206 4.61294 10.3891 3.58149C9.35765 2.55004 7.9587 1.97058 6.50001 1.97058Z" fill="black"/>
</svg>
